<svg xmlns="http://www.w3.org/2000/svg" version="1.1" xmlns:xlink="http://www.w3.org/1999/xlink" xmlns:svgjs="http://svgjs.dev/svgjs" width="1920" height="1080" preserveAspectRatio="none" viewBox="0 0 1920 1080"><g mask="url(&quot;#SvgjsMask1028&quot;)" fill="none"><rect width="1920" height="1080" x="0" y="0" fill="rgba(255, 255, 255, 1)"></rect><path d="M647.7068433641684-39.66880408055246L394.38461271136634-112.30778483037187 321.74563196154696 141.0144458224302 575.067862614349 213.6534265722496z" fill="rgba(0, 205, 255, 0.4)" class="triangle-float1"></path><path d="M1692.4901838879086-71.853175679111L1497.3830856252866 137.37357160143603 1706.6098329058336 332.4806698640581 1901.7169311684556 123.25392258351106z" fill="rgba(0, 205, 255, 0.4)" class="triangle-float3"></path><path d="M-207.97 1018.2 a227.02 227.02 0 1 0 454.04 0 a227.02 227.02 0 1 0 -454.04 0z" fill="rgba(0, 205, 255, 0.4)" class="triangle-float1"></path><path d="M1359.4740003870997 404.4939508183587L1313.4411639696987 187.92648258435713 1096.873695735697 233.95931900175825 1142.9065321530982 450.5267872357598z" fill="rgba(0, 205, 255, 0.4)" class="triangle-float2"></path><path d="M1969.165,1081.738C2073.435,1080.361,2157.488,1007.259,2210.377,917.388C2264.189,825.949,2298.171,710.471,2239.792,621.878C2184.814,538.447,2069.051,548.905,1969.165,551.34C1875.502,553.624,1773.033,556.982,1720.469,634.539C1662.463,720.126,1666.409,833.55,1716.659,923.908C1768.364,1016.882,1862.79,1083.143,1969.165,1081.738" fill="rgba(0, 205, 255, 0.4)" class="triangle-float1"></path><path d="M727.63 892.28 a271.81 271.81 0 1 0 543.62 0 a271.81 271.81 0 1 0 -543.62 0z" fill="rgba(0, 205, 255, 0.4)" class="triangle-float2"></path></g><defs><mask id="SvgjsMask1028"><rect width="1920" height="1080" fill="#ffffff"></rect></mask><style>
</style></defs></svg>