<svg xmlns="http://www.w3.org/2000/svg" version="1.1" xmlns:xlink="http://www.w3.org/1999/xlink" xmlns:svgjs="http://svgjs.dev/svgjs" width="1920" height="1080" preserveAspectRatio="none" viewBox="0 0 1920 1080"><g mask="url(&quot;#SvgjsMask1053&quot;)" fill="none"><rect width="1920" height="1080" x="0" y="0" fill="rgba(255, 255, 255, 1)"></rect><path d="M422.3805650831129 880.4140645778299L644.8787235959514 1060.5895207568183 825.0541797749398 838.0913622439798 602.5560212621014 657.9159060649914z" fill="rgba(0, 205, 255, 0.4)" class="triangle-float3"></path><path d="M1418.167,348.267C1491.482,349.793,1574.266,343.772,1612.063,280.933C1650.606,216.854,1626.615,134.612,1583.374,73.605C1546.602,21.725,1481.737,5.764,1418.167,7.37C1357.958,8.891,1300.635,31.769,1266.81,81.601C1227.938,138.868,1203.599,212.949,1237.764,273.143C1272.227,333.861,1348.365,346.814,1418.167,348.267" fill="rgba(0, 205, 255, 0.4)" class="triangle-float3"></path><path d="M816.44 807.22 a207.15 207.15 0 1 0 414.3 0 a207.15 207.15 0 1 0 -414.3 0z" fill="rgba(0, 205, 255, 0.4)" class="triangle-float2"></path><path d="M937.4818719693922 411.7501760765049L843.4667043266368 166.83229093500842 598.5488191851404 260.84745857776375 692.5639868278956 505.7653437192602z" fill="rgba(0, 205, 255, 0.4)" class="triangle-float3"></path><path d="M-96.48 457.9 a183.35 183.35 0 1 0 366.7 0 a183.35 183.35 0 1 0 -366.7 0z" fill="rgba(0, 205, 255, 0.4)" class="triangle-float2"></path><path d="M1531.244,1237.748C1617.859,1239.144,1714.535,1222.909,1756.042,1146.875C1796.519,1072.728,1754.583,985.43,1707.141,915.534C1666.559,855.745,1603.502,816.355,1531.244,815.686C1457.761,815.006,1389.919,850.776,1349.617,912.225C1304.611,980.846,1278.668,1068.164,1318.653,1139.827C1359.397,1212.85,1447.634,1236.401,1531.244,1237.748" fill="rgba(0, 205, 255, 0.4)" class="triangle-float1"></path><path d="M422.67757822632313 437.6570317058349L287.3896718460158 551.1770640522972 536.1976105727854 572.9449380861422z" fill="rgba(0, 205, 255, 0.4)" class="triangle-float3"></path><path d="M370.8754045531384 979.4040778178609L481.39311958268763 1149.5864350727081 681.407797950184 898.7186839009607z" fill="rgba(0, 205, 255, 0.4)" class="triangle-float1"></path><path d="M1346.2306203841897 750.7913816852013L1159.6877142553062 854.1938030367456 1449.633041735734 937.3342878140847z" fill="rgba(0, 205, 255, 0.4)" class="triangle-float3"></path><path d="M142.062,904.208C243.09,910.072,331.591,840.919,381.516,752.893C430.739,666.105,437.087,559.515,386.255,473.66C336.307,389.298,240.093,347.133,142.062,348.457C46.45,349.748,-47.114,395.132,-90.97,480.103C-131.988,559.576,-96.71,649.253,-53.642,727.634C-8.293,810.167,48.049,898.751,142.062,904.208" fill="rgba(0, 205, 255, 0.4)" class="triangle-float2"></path></g><defs><mask id="SvgjsMask1053"><rect width="1920" height="1080" fill="#ffffff"></rect></mask><style>
                @keyframes float1 {
                    0%{transform: translate(0, 0)}
                    50%{transform: translate(-10px, 0)}
                    100%{transform: translate(0, 0)}
                }

                .triangle-float1 {
                    animation: float1 5s infinite;
                }

                @keyframes float2 {
                    0%{transform: translate(0, 0)}
                    50%{transform: translate(-5px, -5px)}
                    100%{transform: translate(0, 0)}
                }

                .triangle-float2 {
                    animation: float2 4s infinite;
                }

                @keyframes float3 {
                    0%{transform: translate(0, 0)}
                    50%{transform: translate(0, -10px)}
                    100%{transform: translate(0, 0)}
                }

                .triangle-float3 {
                    animation: float3 6s infinite;
                }
            </style></defs></svg>