<svg id="visual" viewBox="0 0 960 540" width="960" height="540" xmlns="http://www.w3.org/2000/svg" xmlns:xlink="http://www.w3.org/1999/xlink" version="1.1"><rect x="0" y="0" width="960" height="540" fill="#ffffff"></rect><defs><linearGradient id="grad1_0" x1="43.8%" y1="0%" x2="100%" y2="100%"><stop offset="14.444444444444446%" stop-color="#ffffff" stop-opacity="1"></stop><stop offset="85.55555555555554%" stop-color="#ffffff" stop-opacity="1"></stop></linearGradient></defs><defs><linearGradient id="grad2_0" x1="0%" y1="0%" x2="56.3%" y2="100%"><stop offset="14.444444444444446%" stop-color="#ffffff" stop-opacity="1"></stop><stop offset="85.55555555555554%" stop-color="#ffffff" stop-opacity="1"></stop></linearGradient></defs><g transform="translate(960, 0)"><path d="M0 405C-28.2 374.9 -56.3 344.8 -91.1 340C-125.9 335.2 -167.3 355.7 -202.5 350.7C-237.7 345.7 -266.8 315.2 -277.9 277.9C-289 240.6 -282.3 196.5 -284.1 164C-285.9 131.5 -296.2 110.6 -317.8 85.2C-339.4 59.7 -372.2 29.9 -405 0L0 0Z" fill="#3cd7fa"></path></g><g transform="translate(0, 540)"><path d="M0 -405C35.3 -398.1 70.6 -391.3 100.4 -374.8C130.3 -358.3 154.7 -332.2 181 -313.5C207.3 -294.8 235.5 -283.5 268 -268C300.5 -252.5 337.3 -232.7 350.7 -202.5C364.2 -172.3 354.2 -131.8 359.3 -96.3C364.5 -60.8 384.7 -30.4 405 0L0 0Z" fill="#3cd7fa"></path></g></svg>