<svg id="visual" viewBox="0 0 960 540" width="960" height="540" xmlns="http://www.w3.org/2000/svg" xmlns:xlink="http://www.w3.org/1999/xlink" version="1.1"><rect x="0" y="0" width="960" height="540" fill="#ffffff"></rect><path d="M0 331L22.8 341.3C45.7 351.7 91.3 372.3 137 373.8C182.7 375.3 228.3 357.7 274 345.8C319.7 334 365.3 328 411.2 326.8C457 325.7 503 329.3 548.8 328.7C594.7 328 640.3 323 686 327.8C731.7 332.7 777.3 347.3 823 357.2C868.7 367 914.3 372 937.2 374.5L960 377L960 541L937.2 541C914.3 541 868.7 541 823 541C777.3 541 731.7 541 686 541C640.3 541 594.7 541 548.8 541C503 541 457 541 411.2 541C365.3 541 319.7 541 274 541C228.3 541 182.7 541 137 541C91.3 541 45.7 541 22.8 541L0 541Z" fill="#69edfa"></path><path d="M0 354L22.8 366.5C45.7 379 91.3 404 137 410.8C182.7 417.7 228.3 406.3 274 395.3C319.7 384.3 365.3 373.7 411.2 376.3C457 379 503 395 548.8 400.5C594.7 406 640.3 401 686 400.7C731.7 400.3 777.3 404.7 823 404.8C868.7 405 914.3 401 937.2 399L960 397L960 541L937.2 541C914.3 541 868.7 541 823 541C777.3 541 731.7 541 686 541C640.3 541 594.7 541 548.8 541C503 541 457 541 411.2 541C365.3 541 319.7 541 274 541C228.3 541 182.7 541 137 541C91.3 541 45.7 541 22.8 541L0 541Z" fill="#00c8ff"></path><path d="M0 448L22.8 441.5C45.7 435 91.3 422 137 422.2C182.7 422.3 228.3 435.7 274 434.2C319.7 432.7 365.3 416.3 411.2 414.2C457 412 503 424 548.8 430C594.7 436 640.3 436 686 438.2C731.7 440.3 777.3 444.7 823 443.5C868.7 442.3 914.3 435.7 937.2 432.3L960 429L960 541L937.2 541C914.3 541 868.7 541 823 541C777.3 541 731.7 541 686 541C640.3 541 594.7 541 548.8 541C503 541 457 541 411.2 541C365.3 541 319.7 541 274 541C228.3 541 182.7 541 137 541C91.3 541 45.7 541 22.8 541L0 541Z" fill="#009dfb"></path><path d="M0 434L22.8 435.8C45.7 437.7 91.3 441.3 137 441.7C182.7 442 228.3 439 274 440.7C319.7 442.3 365.3 448.7 411.2 456.2C457 463.7 503 472.3 548.8 471C594.7 469.7 640.3 458.3 686 459.2C731.7 460 777.3 473 823 477.5C868.7 482 914.3 478 937.2 476L960 474L960 541L937.2 541C914.3 541 868.7 541 823 541C777.3 541 731.7 541 686 541C640.3 541 594.7 541 548.8 541C503 541 457 541 411.2 541C365.3 541 319.7 541 274 541C228.3 541 182.7 541 137 541C91.3 541 45.7 541 22.8 541L0 541Z" fill="#006ce8"></path><path d="M0 510L22.8 507.7C45.7 505.3 91.3 500.7 137 497.7C182.7 494.7 228.3 493.3 274 491.2C319.7 489 365.3 486 411.2 488.2C457 490.3 503 497.7 548.8 501.7C594.7 505.7 640.3 506.3 686 501.7C731.7 497 777.3 487 823 483.3C868.7 479.7 914.3 482.3 937.2 483.7L960 485L960 541L937.2 541C914.3 541 868.7 541 823 541C777.3 541 731.7 541 686 541C640.3 541 594.7 541 548.8 541C503 541 457 541 411.2 541C365.3 541 319.7 541 274 541C228.3 541 182.7 541 137 541C91.3 541 45.7 541 22.8 541L0 541Z" fill="#2433c7"></path></svg>