<svg xmlns="http://www.w3.org/2000/svg" xmlns:xlink="http://www.w3.org/1999/xlink" data-name="Layer 1" viewBox="0 0 597.03 590.1" id="career"><defs><linearGradient id="c" x1="603.96" x2="496.77" y1="268.39" y2="228.29" gradientUnits="userSpaceOnUse"><stop offset="0" stop-opacity="0"></stop><stop offset=".66" stop-opacity=".71"></stop><stop offset=".99"></stop></linearGradient><linearGradient id="a" x1="325.79" x2="38.1" y1="335.51" y2="787.23" gradientUnits="userSpaceOnUse"><stop offset="0" stop-opacity="0"></stop><stop offset=".99"></stop></linearGradient><linearGradient id="d" x1="532.07" x2="813.7" y1="163.21" y2="164.41" xlink:href="#a"></linearGradient><linearGradient id="b" x1="572.52" x2="582.9" y1="59.32" y2="62.5" gradientUnits="userSpaceOnUse"><stop offset="0" stop-color="#ecc4d7"></stop><stop offset=".42" stop-color="#efd4d1"></stop><stop offset="1" stop-color="#f2eac9"></stop></linearGradient><linearGradient id="e" x1="556.95" x2="564.91" y1="23.41" y2="60.29" xlink:href="#b"></linearGradient><linearGradient id="f" x1="442.68" x2="475.32" y1="153.34" y2="153.34" xlink:href="#b"></linearGradient><linearGradient id="g" x1="645.06" x2="670.36" y1="198.47" y2="198.47" xlink:href="#b"></linearGradient><linearGradient id="h" x1="602.43" x2="688.43" y1="258.85" y2="258.85" gradientUnits="userSpaceOnUse"><stop offset="0" stop-color="#fff" stop-opacity="0"></stop><stop offset=".01" stop-color="#fff" stop-opacity=".01"></stop><stop offset=".38" stop-color="#fff" stop-opacity=".43"></stop><stop offset=".67" stop-color="#fff" stop-opacity=".74"></stop><stop offset=".88" stop-color="#fff" stop-opacity=".93"></stop><stop offset=".99" stop-color="#fff"></stop></linearGradient><linearGradient id="i" x1="617.29" x2="751.81" y1="157.32" y2="31.97" gradientUnits="userSpaceOnUse"><stop offset="0" stop-opacity="0"></stop><stop offset=".39" stop-opacity=".44"></stop><stop offset=".99"></stop></linearGradient><linearGradient id="j" x1="519.98" x2="694.56" y1="122.5" y2="254.15" xlink:href="#a"></linearGradient><linearGradient id="k" x1="317.88" x2="198.01" y1="249.78" y2="902.12" xlink:href="#a"></linearGradient></defs><path fill="#68e1fd" d="M46.71 85.48C62.03 59.61 88.5 42.4 115.47 29.13c23.94-11.79 50.23-21.4 76.77-18.55 50.87 5.5 88.21 54.4 138.72 62.65 19.89 3.24 40.19-.16 60.15-3 34.53-5 69.91-8.31 104.14-1.56s67.57 24.86 85.76 54.63c20.2 33 19 75.2 9 112.63s-27.7 72.28-39.23 109.24c-4.38 14-7.86 29-4.31 43.2 3.22 12.88 11.82 23.6 18.62 35A137.87 137.87 0 0 1 584.31 498c-61.46 19.37-128.47 4.33-188.87-18.14-53.66-20-105-45.63-156.1-71.43-40.74-20.57-81.8-41.49-116.94-70.61-33.31-27.61-60.39-61.82-87.21-95.77-8.53-10.8-26.49-27.58-29.24-41.29-2.89-14.38 6.37-23.17 12.14-36.19 11.43-25.71 14.13-54.64 28.62-79.09Z" opacity=".18"></path><path fill="#25233a" d="M504.16 205.36v7.68l4.59-.41v-4.64a4.92 4.92 0 0 1 4.56-4.91l25.89-2.07a4.91 4.91 0 0 1 5.22 4l.79 4.31 3.61-.32v-5.42a6.64 6.64 0 0 0-7-6.64l-31.38 1.75a6.64 6.64 0 0 0-6.28 6.67Z"></path><path fill="#68e1fd" d="m499.53 213.46 4.68-.42 74.87-6.75 4.23 64.02-92.73 8.45-5.25-61.54 14.2-3.76z"></path><path fill="url(#c)" d="m499.53 213.46 4.68-.42 74.87-6.75 4.23 64.02-92.73 8.45-5.25-61.54 14.2-3.76z"></path><path fill="#68e1fd" d="M585.06 492.46v97.64H0V185.38h97.64v63.43h97.62v63.42h97.64v63.43h97.62v53.38h96.9v63.42h97.64z"></path><path fill="url(#a)" d="M585.06 492.46v97.64H0V185.38h97.64v63.43h97.62v63.42h97.64v63.43h97.62v53.38h96.9v63.42h97.64z"></path><path fill="#25233a" d="M427.76 213.08s-72.34 22.88-77.19 46 18.47 79.06 18.47 79.06l26.15-7.47s-13.23-40.58-2.68-51.76 87.34-19.14 102.54-61.08c0 .08-25.69-29.75-67.29-4.75Z"></path><path fill="#68e1fd" d="m497.9 222.36-51.15-7.9-19-1.35 4.17-16-6.49-67.23s-.07-8.51.36-18.71c.37-9 1.12-19.36 2.64-26.32 2.9-13.31 28.22-10.94 38.09-9.24a14.52 14.52 0 0 1 11.31 10.11c7.27 23.66 23.18 78.82 23.82 85.77 3.5 37.84-3.75 50.87-3.75 50.87Z"></path><path fill="url(#d)" d="M602.45 206.56c-1.3 2-3.66 2.87-5.86 3.67l-17.15 6.15-19-1.35 4.17-16-6.49-67.23s-.07-8.51.36-18.71c10.73-4.54 22.41-4.2 27.11 7.41 4.62 11.39 4.76 26.23 7.83 38.3 3.37 13.24 7.18 26.38 9.65 39.82.49 2.7.93 5.68-.62 7.94Z" transform="translate(-132.69 -1.92)"></path><path fill="#68e1fd" d="M462.23 76.1v-6.93l-32.5 4.84-1.28 10.85 33.78-8.76zM537.13 179.64h-20.9l-4.2-43.78-21.19-8.23-13-27.8-11.3-24.18c1 .6 64.87 38.69 67.74 40.91s2.85 63.08 2.85 63.08Z"></path><path fill="#3f3d56" d="M559.19 319.08s-52.84 19.72-79.69 8.88-52.01-80.88-51.74-114.88c0 0 26-16.46 51.33-6.35.54.21 1.07.42 1.59.65l.41.2c.32.14.64.28.94.44s.73.35 1.08.54c1 .52 2 1.09 3 1.72.33.21.64.42 1 .61l1.7 1.16c.27.21.54.4.8.59.52.39 1 .77 1.46 1.14l.66.54c1.19 1 2.36 2.08 3.53 3.24l.13.14s-11.81 42.3.79 69.19c10.43 22.22 54.26 9.08 57.91 8l.24-.08Z"></path><path fill="#25233a" d="m375.6 366.08 18-6.18a10.43 10.43 0 0 0 6.3-13.82l-.42-1-4.29-14.32-19.59 5.59s3.42 8.18-1.18 11.65-22.5 15.75-22.76 23.16 23.94-5.08 23.94-5.08ZM554.31 295.25s21.75-5.56 24.12-5 7.79 6.43 12.19 21.61 6.44 22.48 4.07 23.94-13.21 2.63-16.93-6.43-5.42-14.49-8.81-15.87-10.92 0-10.92 0Z"></path><path fill="url(#b)" d="M566.84 75.27s-.26-8 1-12.1c2.24-7.14 12.46-21.91 15.41-17.88 4.61 6.31 9.22 25.8 9.22 25.8Z" transform="translate(-132.69 -1.92)"></path><path fill="url(#e)" d="M538.48 31s1.3 28.21 11.22 35.79 22.3-3.62 22.3-3.62S586.45 51.06 583.75 49c-10.12-7.62-4.7-43-19.36-37.86S541.54 19 538.48 31Z" transform="translate(-132.69 -1.92)"></path><path fill="#3f3d56" d="M404.42 8.68s-8.35 3.47-9.2 10.46 6.3 11.42 6.3 11.42 5.63-3.24 10.23-2S430.16 26 430.16 26l6 13.29s3.07-10 6.14-7.67 1 10.23 0 11.94.68 3.7.68 3.7l3.06 6.18 4.1 2.39 5.62-1s-2.55-37.85-7.5-44.84-12.44-8.52-13.29-7.5-20.66-9.41-30.55 6.19Z"></path><path fill="url(#f)" d="M475.32 146.2s-6.73.32-9.46-1.72-17.39-7.16-17.39-7.16-4.09.72-4.77 4.45a96.66 96.66 0 0 0-.86 10.89s-.85 7.67 1.37 11.25 7 4.77 7 4.77 4.7 1.54 7.8 0 5.15-3.06 5.83-3.06 9.79.17 9.79.17Z" transform="translate(-132.69 -1.92)"></path><path fill="url(#g)" d="M648.91 181.56s2.17 11.36-.31 13.89c-5.12 5.2-4.26 17.29-.17 19.08s20.15.61 21.38-2.21 0-10 0-10-.74-4.86-1.82-6.91-1.83-13.8-1.83-13.8Z" transform="translate(-132.69 -1.92)"></path><path fill="#68e1fd" d="m451.99 112.4-24.53 53.21s-1 5.26-16.82 7.54-68.71-5-68.71-5l.41-13.59.3-10.27s61.54 3.71 61.51.94c0-2.29 14-37 18.77-48.91a16.18 16.18 0 0 1 9.84-9.41 14.27 14.27 0 0 1 12.07 1.5 18.76 18.76 0 0 1 7.16 23.99Z"></path><path fill="url(#h)" d="M645.05 311.05c-45.2 3.81-42.6-104.49-42.6-104.49a32 32 0 0 1 10.92 2.77l.41.2c.32.14.64.28.94.44s.73.35 1.08.54c1.05.56 2.06 1.13 3 1.72.33.21.64.42 1 .61l1.7 1.16c.27.21.54.4.8.59.52.39 1 .77 1.46 1.14l.66.54a46 46 0 0 1 3.53 3.24l.13.14s-11.81 42.3.79 69.19c10.43 22.22 54.26 9.08 57.91 8l.29.38 1.38 6.76s1.81 3.28-43.4 7.07Z" transform="translate(-132.69 -1.92)"></path><path fill="url(#i)" d="M657.71 181.56h-8.79l-4.2-43.78-21.19-8.23-13-27.8s36.87 21.5 40.68 27.81 6.5 52 6.5 52Z" transform="translate(-132.69 -1.92)"></path><path fill="url(#j)" d="M565.45 88.83c-.34 1-22.22 65.5-27 67.65s-60.79.1-63.45 0h-.1l.4-10.27s61.54 3.71 61.51.94c0-2.29 14-37 18.77-48.91a16.18 16.18 0 0 1 9.87-9.41Z" transform="translate(-132.69 -1.92)"></path><path fill="#68e1fd" d="M0 185.38 585.06 590.1H0V185.38z"></path><path fill="url(#k)" d="M0 185.38 585.06 590.1H0V185.38z"></path></svg>